<svg xmlns="http://www.w3.org/2000/svg" xmlns:xlink="http://www.w3.org/1999/xlink" contentStyleType="text/css" data-diagram-type="DESCRIPTION" height="693px" preserveAspectRatio="none" style="width:2787px;height:693px;background:#FFFFFF;" version="1.1" viewBox="0 0 2787 693" width="2787px" zoomAndPan="magnify"><defs/><g><!--cluster Client Node (x N)--><g class="cluster" data-entity="Client Node .x N." data-source-line="5" data-uid="ent0002" id="cluster_Client Node .x N."><rect fill="#FFFFFF" height="551.5" rx="2.5" ry="2.5" style="stroke:#000000;stroke-width:1;" width="734" x="12" y="12"/><text fill="#000000" font-family="Verdana" font-size="14" font-weight="bold" lengthAdjust="spacing" textLength="135.0439" x="311.478" y="26.9951">Client Node (x N)</text></g><!--cluster Execution Sandbox--><g class="cluster" data-entity="Execution Sandbox" data-source-line="9" data-uid="ent0004" id="cluster_Execution Sandbox"><polygon fill="#FFFFFF" points="36,185,46,175,525,175,525,529.5,515,539.5,36,539.5,36,185" style="stroke:#000000;stroke-width:1;"/><line style="stroke:#000000;stroke-width:1;" x1="515" x2="525" y1="185" y2="175"/><line style="stroke:#000000;stroke-width:1;" x1="36" x2="515" y1="185" y2="185"/><line style="stroke:#000000;stroke-width:1;" x1="515" x2="515" y1="185" y2="539.5"/><text fill="#000000" font-family="Verdana" font-size="14" font-weight="bold" lengthAdjust="spacing" textLength="150.4932" x="201.2534" y="200.9951">Execution Sandbox</text></g><!--cluster Aggregation Server--><g class="cluster" data-entity="Aggregation Server" data-source-line="25" data-uid="ent0011" id="cluster_Aggregation Server"><rect fill="#FFFFFF" height="339.5" rx="2.5" ry="2.5" style="stroke:#000000;stroke-width:1;" width="2011" x="770" y="348"/><text fill="#000000" font-family="Verdana" font-size="14" font-weight="bold" lengthAdjust="spacing" textLength="154.7041" x="1698.1479" y="362.9951">Aggregation Server</text></g><!--cluster Security Layer--><g class="cluster" data-entity="Security Layer" data-source-line="28" data-uid="ent0013" id="cluster_Security Layer"><rect fill="#FFFFFF" height="156" rx="2.5" ry="2.5" style="stroke:#000000;stroke-width:1;" width="850" x="1907" y="391"/><text fill="#000000" font-family="Verdana" font-size="14" font-weight="bold" lengthAdjust="spacing" textLength="114.1328" x="2274.9336" y="405.9951">Security Layer</text></g><!--cluster Core ML Logic--><g class="cluster" data-entity="Core ML Logic" data-source-line="42" data-uid="ent0019" id="cluster_Core ML Logic"><rect fill="#FFFFFF" height="116" rx="2.5" ry="2.5" style="stroke:#000000;stroke-width:1;" width="848" x="1035" y="411"/><text fill="#000000" font-family="Verdana" font-size="14" font-weight="bold" lengthAdjust="spacing" textLength="110.5508" x="1403.7246" y="425.9951">Core ML Logic</text></g><!--entity Data--><g class="entity" data-entity="Data" data-source-line="7" data-uid="ent0003" id="entity_Data"><rect fill="#FFFFFF" height="46.2969" rx="2.5" ry="2.5" style="stroke:#000000;stroke-width:1;" width="114.4092" x="64" y="66"/><rect fill="#FFFFFF" height="10" style="stroke:#000000;stroke-width:1;" width="15" x="158.4092" y="71"/><rect fill="#FFFFFF" height="2" style="stroke:#000000;stroke-width:1;" width="4" x="156.4092" y="73"/><rect fill="#FFFFFF" height="2" style="stroke:#000000;stroke-width:1;" width="4" x="156.4092" y="77"/><text fill="#000000" font-family="Verdana" font-size="14" lengthAdjust="spacing" textLength="74.4092" x="79" y="98.9951">Local Data</text></g><!--entity ClientNet--><g class="entity" data-entity="ClientNet" data-source-line="22" data-uid="ent0010" id="entity_ClientNet"><ellipse cx="721" cy="262" fill="#FFFFFF" rx="8" ry="8" style="stroke:#000000;stroke-width:1;"/><text fill="#000000" font-family="Verdana" font-size="14" lengthAdjust="spacing" textLength="90.6855" x="675.6572" y="291.9951">mTLS Socket</text></g><!--entity Trainer--><g class="entity" data-entity="Trainer" data-source-line="11" data-uid="ent0005" id="entity_Trainer"><rect fill="#FFFFFF" height="46.2969" rx="2.5" ry="2.5" style="stroke:#000000;stroke-width:1;" width="136.5029" x="52.5" y="239"/><rect fill="#FFFFFF" height="10" style="stroke:#000000;stroke-width:1;" width="15" x="169.0029" y="244"/><rect fill="#FFFFFF" height="2" style="stroke:#000000;stroke-width:1;" width="4" x="167.0029" y="246"/><rect fill="#FFFFFF" height="2" style="stroke:#000000;stroke-width:1;" width="4" x="167.0029" y="250"/><text fill="#000000" font-family="Verdana" font-size="14" lengthAdjust="spacing" textLength="96.5029" x="67.5" y="271.9951">Model Trainer</text></g><!--entity CSA--><g class="entity" data-entity="CSA" data-source-line="12" data-uid="ent0006" id="entity_CSA"><rect fill="#FFFFFF" height="46.2969" rx="2.5" ry="2.5" style="stroke:#000000;stroke-width:1;" width="188.3604" x="321" y="239"/><rect fill="#FFFFFF" height="10" style="stroke:#000000;stroke-width:1;" width="15" x="489.3604" y="244"/><rect fill="#FFFFFF" height="2" style="stroke:#000000;stroke-width:1;" width="4" x="487.3604" y="246"/><rect fill="#FFFFFF" height="2" style="stroke:#000000;stroke-width:1;" width="4" x="487.3604" y="250"/><text fill="#000000" font-family="Verdana" font-size="14" lengthAdjust="spacing" textLength="148.3604" x="336" y="271.9951">Client Security Agent</text></g><g class="entity" data-entity="GMN7" data-source-line="15" data-uid="ent0008" id="entity_GMN7"><path d="M329.5,452.5 L329.5,523.0313 A0,0 0 0 0 329.5,523.0313 L500.5078,523.0313 A0,0 0 0 0 500.5078,523.0313 L500.5078,462.5 L490.5078,452.5 L419,452.5 L415,285.3 L411,452.5 L329.5,452.5 A0,0 0 0 0 329.5,452.5" fill="#FFFFFF" style="stroke:#000000;stroke-width:1;"/><path d="M490.5078,452.5 L490.5078,462.5 L500.5078,462.5 L490.5078,452.5" fill="#FFFFFF" style="stroke:#000000;stroke-width:1;"/><text fill="#000000" font-family="Verdana" font-size="13" font-weight="bold" lengthAdjust="spacing" textLength="142.1113" x="335.5" y="469.5669">Security Functions:</text><text fill="#000000" font-family="Verdana" font-size="13" lengthAdjust="spacing" textLength="127.9624" x="335.5" y="484.6997">- LDP (Clip + Noise)</text><text fill="#000000" font-family="Verdana" font-size="13" lengthAdjust="spacing" textLength="150.0078" x="335.5" y="499.8325">- Signature Verification</text><text fill="#000000" font-family="Verdana" font-size="13" lengthAdjust="spacing" textLength="112.6963" x="335.5" y="514.9653">- Payload Signing</text></g><!--entity ServerNet--><g class="entity" data-entity="ServerNet" data-source-line="26" data-uid="ent0012" id="entity_ServerNet"><ellipse cx="1007" cy="488" fill="#FFFFFF" rx="8" ry="8" style="stroke:#000000;stroke-width:1;"/><text fill="#000000" font-family="Verdana" font-size="14" lengthAdjust="spacing" textLength="99.6543" x="957.1729" y="517.9951">mTLS Listener</text></g><!--entity DB--><g class="entity" data-entity="DB" data-source-line="47" data-uid="ent0022" id="entity_DB"><path d="M785.5,475.5 C785.5,465.5 873.8945,465.5 873.8945,465.5 C873.8945,465.5 962.2891,465.5 962.2891,475.5 L962.2891,500.7969 C962.2891,510.7969 873.8945,510.7969 873.8945,510.7969 C873.8945,510.7969 785.5,510.7969 785.5,500.7969 L785.5,475.5" fill="#FFFFFF" style="stroke:#000000;stroke-width:1;"/><path d="M785.5,475.5 C785.5,485.5 873.8945,485.5 873.8945,485.5 C873.8945,485.5 962.2891,485.5 962.2891,475.5" fill="none" style="stroke:#000000;stroke-width:1;"/><text fill="#000000" font-family="Verdana" font-size="14" lengthAdjust="spacing" textLength="156.7891" x="795.5" y="502.4951">Model Registry &amp; Logs</text></g><!--entity PKI--><g class="entity" data-entity="PKI" data-source-line="48" data-uid="ent0023" id="entity_PKI"><path d="M1977.5,636.5 C1977.5,626.5 2014.8608,626.5 2014.8608,626.5 C2014.8608,626.5 2052.2217,626.5 2052.2217,636.5 L2052.2217,661.7969 C2052.2217,671.7969 2014.8608,671.7969 2014.8608,671.7969 C2014.8608,671.7969 1977.5,671.7969 1977.5,661.7969 L1977.5,636.5" fill="#FFFFFF" style="stroke:#000000;stroke-width:1;"/><path d="M1977.5,636.5 C1977.5,646.5 2014.8608,646.5 2014.8608,646.5 C2014.8608,646.5 2052.2217,646.5 2052.2217,636.5" fill="none" style="stroke:#000000;stroke-width:1;"/><text fill="#000000" font-family="Verdana" font-size="14" lengthAdjust="spacing" textLength="54.7217" x="1987.5" y="663.4951">PKI / CA</text></g><!--entity ConnMan--><g class="entity" data-entity="ConnMan" data-source-line="29" data-uid="ent0014" id="entity_ConnMan"><rect fill="#FFFFFF" height="46.2969" rx="2.5" ry="2.5" style="stroke:#000000;stroke-width:1;" width="185.0313" x="1922.5" y="465"/><rect fill="#FFFFFF" height="10" style="stroke:#000000;stroke-width:1;" width="15" x="2087.5313" y="470"/><rect fill="#FFFFFF" height="2" style="stroke:#000000;stroke-width:1;" width="4" x="2085.5313" y="472"/><rect fill="#FFFFFF" height="2" style="stroke:#000000;stroke-width:1;" width="4" x="2085.5313" y="476"/><text fill="#000000" font-family="Verdana" font-size="14" lengthAdjust="spacing" textLength="145.0313" x="1937.5" y="497.9951">Connection Manager</text></g><!--entity ASM--><g class="entity" data-entity="ASM" data-source-line="31" data-uid="ent0015" id="entity_ASM"><rect fill="#FFFFFF" height="46.2969" rx="2.5" ry="2.5" style="stroke:#000000;stroke-width:1;" width="218.7051" x="2249.5" y="465"/><rect fill="#FFFFFF" height="10" style="stroke:#000000;stroke-width:1;" width="15" x="2448.2051" y="470"/><rect fill="#FFFFFF" height="2" style="stroke:#000000;stroke-width:1;" width="4" x="2446.2051" y="472"/><rect fill="#FFFFFF" height="2" style="stroke:#000000;stroke-width:1;" width="4" x="2446.2051" y="476"/><text fill="#000000" font-family="Verdana" font-size="14" lengthAdjust="spacing" textLength="178.7051" x="2264.5" y="497.9951">Anomaly Security Module</text></g><g class="entity" data-entity="GMN16" data-source-line="34" data-uid="ent0017" id="entity_GMN16"><path d="M2503.5,445 L2503.5,484 L2468.67,488 L2503.5,492 L2503.5,530.6641 A0,0 0 0 0 2503.5,530.6641 L2740.0474,530.6641 A0,0 0 0 0 2740.0474,530.6641 L2740.0474,455 L2730.0474,445 L2503.5,445 A0,0 0 0 0 2503.5,445" fill="#FFFFFF" style="stroke:#000000;stroke-width:1;"/><path d="M2730.0474,445 L2730.0474,455 L2740.0474,455 L2730.0474,445" fill="#FFFFFF" style="stroke:#000000;stroke-width:1;"/><text fill="#000000" font-family="Verdana" font-size="13" font-weight="bold" lengthAdjust="spacing" textLength="66.6377" x="2509.5" y="462.0669">Modules:</text><text fill="#000000" font-family="Verdana" font-size="13" lengthAdjust="spacing" textLength="109.2813" x="2509.5" y="477.1997">- Norm Inspector</text><text fill="#000000" font-family="Verdana" font-size="13" lengthAdjust="spacing" textLength="130.9902" x="2509.5" y="492.3325">- Similarity Analyzer</text><text fill="#000000" font-family="Verdana" font-size="13" lengthAdjust="spacing" textLength="215.5474" x="2509.5" y="507.4653">- Robust Strategy (Krum/FLTrust)</text><text fill="#000000" font-family="Verdana" font-size="13" lengthAdjust="spacing" textLength="141.4258" x="2509.5" y="522.5981">- Reputation Manager</text></g><!--entity Aggregator--><g class="entity" data-entity="Aggregator" data-source-line="43" data-uid="ent0020" id="entity_Aggregator"><rect fill="#FFFFFF" height="46.2969" rx="2.5" ry="2.5" style="stroke:#000000;stroke-width:1;" width="168.1055" x="1051" y="465"/><rect fill="#FFFFFF" height="10" style="stroke:#000000;stroke-width:1;" width="15" x="1199.1055" y="470"/><rect fill="#FFFFFF" height="2" style="stroke:#000000;stroke-width:1;" width="4" x="1197.1055" y="472"/><rect fill="#FFFFFF" height="2" style="stroke:#000000;stroke-width:1;" width="4" x="1197.1055" y="476"/><text fill="#000000" font-family="Verdana" font-size="14" lengthAdjust="spacing" textLength="128.1055" x="1066" y="497.9951">Global Aggregator</text></g><!--entity Auditor--><g class="entity" data-entity="Auditor" data-source-line="44" data-uid="ent0021" id="entity_Auditor"><rect fill="#FFFFFF" height="46.2969" rx="2.5" ry="2.5" style="stroke:#000000;stroke-width:1;" width="137.5215" x="1729" y="465"/><rect fill="#FFFFFF" height="10" style="stroke:#000000;stroke-width:1;" width="15" x="1846.5215" y="470"/><rect fill="#FFFFFF" height="2" style="stroke:#000000;stroke-width:1;" width="4" x="1844.5215" y="472"/><rect fill="#FFFFFF" height="2" style="stroke:#000000;stroke-width:1;" width="4" x="1844.5215" y="476"/><text fill="#000000" font-family="Verdana" font-size="14" lengthAdjust="spacing" textLength="97.5215" x="1744" y="497.9951">Model Auditor</text></g><!--link Data to Trainer--><g class="link" data-entity-1="Data" data-entity-2="Trainer" data-source-line="52" data-uid="lnk24" id="link_Data_Trainer"><path d="M121,112.01 C121,144.75 121,199.96 121,232.81" fill="none" id="Data-to-Trainer" style="stroke:#000000;stroke-width:1;"/><polygon fill="#000000" points="121,238.81,125,229.81,121,233.81,117,229.81,121,238.81" style="stroke:#000000;stroke-width:1;"/><text fill="#000000" font-family="Verdana" font-size="13" lengthAdjust="spacing" textLength="67.1582" x="122" y="155.0669">Read Only</text></g><!--link Trainer to CSA--><g class="link" data-entity-1="Trainer" data-entity-2="CSA" data-source-line="53" data-uid="lnk25" id="link_Trainer_CSA"><path d="M189.56,262 C228.67,262 272.26,262 314.96,262" fill="none" id="Trainer-to-CSA" style="stroke:#000000;stroke-width:1;"/><polygon fill="#000000" points="320.96,262,311.96,258,315.96,262,311.96,266,320.96,262" style="stroke:#000000;stroke-width:1;"/><text fill="#000000" font-family="Verdana" font-size="13" lengthAdjust="spacing" textLength="95.1196" x="207.75" y="255.0669">Raw Gradients</text></g><!--link CSA to ClientNet--><g class="link" data-entity-1="CSA" data-entity-2="ClientNet" data-source-line="54" data-uid="lnk26" id="link_CSA_ClientNet"><path d="M509.31,262 C584.47,262 675.9,262 705.84,262" fill="none" id="CSA-to-ClientNet" style="stroke:#000000;stroke-width:1;"/><polygon fill="#000000" points="711.84,262,702.84,258,706.84,262,702.84,266,711.84,262" style="stroke:#000000;stroke-width:1;"/><text fill="#000000" font-family="Verdana" font-size="13" lengthAdjust="spacing" textLength="166.188" x="527.5" y="255.0669">Encrypted Signed Update</text></g><!--link ClientNet to ServerNet--><g class="link" data-entity-1="ClientNet" data-entity-2="ServerNet" data-source-line="55" data-uid="lnk27" id="link_ClientNet_ServerNet"><path d="M736.0574,262.4349 C773.3874,261.3449 910.57,262.69 980,340 C1016.58,380.73 1011.932,448.2248 1008.912,472.7948" fill="none" id="ClientNet-ServerNet" style="stroke:#000000;stroke-width:1;stroke-dasharray:7,7;"/><polygon fill="#000000" points="730.06,262.61,739.1729,266.3456,735.0579,262.4641,738.9394,258.349,730.06,262.61" style="stroke:#000000;stroke-width:1;"/><polygon fill="#000000" points="1008.18,478.75,1013.2481,470.3052,1008.79,473.7873,1005.3078,469.3292,1008.18,478.75" style="stroke:#000000;stroke-width:1;"/><text fill="#000000" font-family="Verdana" font-size="13" lengthAdjust="spacing" textLength="96.6431" x="970" y="328.0669">TLS 1.3 Tunnel</text></g><!--link ServerNet to ConnMan--><g class="link" data-entity-1="ServerNet" data-entity-2="ConnMan" data-source-line="57" data-uid="lnk28" id="link_ServerNet_ConnMan"><path d="M1005.51,478.86 C1002.04,453.91 996.39,384.43 1035,353 C1108.08,293.52 1796.15,316.45 1883,353 C1937.08,375.76 1976.795,427.6627 1997.765,459.8527" fill="none" id="ServerNet-to-ConnMan" style="stroke:#000000;stroke-width:1;"/><polygon fill="#000000" points="2001.04,464.88,1999.479,455.1556,1998.3108,460.6905,1992.7759,459.5223,2001.04,464.88" style="stroke:#000000;stroke-width:1;"/><text fill="#000000" font-family="Verdana" font-size="13" lengthAdjust="spacing" textLength="107.3389" x="1343.5" y="328.0669">Auth Handshake</text></g><!--link ConnMan to PKI--><g class="link" data-entity-1="ConnMan" data-entity-2="PKI" data-source-line="58" data-uid="lnk29" id="link_ConnMan_PKI"><path d="M2015,511.11 C2015,541.57 2015,590.11 2015,620.33" fill="none" id="ConnMan-to-PKI" style="stroke:#000000;stroke-width:1;stroke-dasharray:7,7;"/><polygon fill="#000000" points="2015,626.33,2019,617.33,2015,621.33,2011,617.33,2015,626.33" style="stroke:#000000;stroke-width:1;"/><text fill="#000000" font-family="Verdana" font-size="13" lengthAdjust="spacing" textLength="85.0459" x="2016" y="592.5669">Validate Cert</text></g><!--link ConnMan to ASM--><g class="link" data-entity-1="ConnMan" data-entity-2="ASM" data-source-line="59" data-uid="lnk30" id="link_ConnMan_ASM"><path d="M2107.64,488 C2151.32,488 2197.74,488 2243.39,488" fill="none" id="ConnMan-to-ASM" style="stroke:#000000;stroke-width:1;"/><polygon fill="#000000" points="2249.39,488,2240.39,484,2244.39,488,2240.39,492,2249.39,488" style="stroke:#000000;stroke-width:1;"/><text fill="#000000" font-family="Verdana" font-size="13" lengthAdjust="spacing" textLength="105.7012" x="2126" y="481.0669">Verified Payload</text></g><!--link ASM to Aggregator--><g class="link" data-entity-1="ASM" data-entity-2="Aggregator" data-source-line="60" data-uid="lnk31" id="link_ASM_Aggregator"><path d="M2330.59,464.87 C2288.65,432.39 2206.32,374.78 2125,353 C1777.94,260.06 1350.0069,403.7278 1197.1269,462.7878" fill="none" id="ASM-to-Aggregator" style="stroke:#000000;stroke-width:1;"/><polygon fill="#000000" points="1191.53,464.95,1201.3668,465.438,1196.1941,463.1482,1198.4839,457.9755,1191.53,464.95" style="stroke:#000000;stroke-width:1;"/><text fill="#000000" font-family="Verdana" font-size="13" lengthAdjust="spacing" textLength="116.8794" x="1220" y="328.0669">Filtered Gradients</text></g><!--link Aggregator to Auditor--><g class="link" data-entity-1="Aggregator" data-entity-2="Auditor" data-source-line="61" data-uid="lnk32" id="link_Aggregator_Auditor"><path d="M1219.31,488 C1351.84,488 1600.41,488 1722.87,488" fill="none" id="Aggregator-to-Auditor" style="stroke:#000000;stroke-width:1;"/><polygon fill="#000000" points="1728.87,488,1719.87,484,1723.87,488,1719.87,492,1728.87,488" style="stroke:#000000;stroke-width:1;"/><text fill="#000000" font-family="Verdana" font-size="13" lengthAdjust="spacing" textLength="155.2256" x="1396.5" y="481.0669">Candidate Global Model</text></g><!--link Auditor to DB--><g class="link" data-entity-1="Auditor" data-entity-2="DB" data-source-line="62" data-uid="lnk33" id="link_Auditor_DB"><path d="M1728.81,466.23 C1556.68,413.71 1113.51,288.94 981,353 C932.67,376.36 902.1282,427.9414 886.6282,459.9014" fill="none" id="Auditor-to-DB" style="stroke:#000000;stroke-width:1;"/><polygon fill="#000000" points="884.01,465.3,891.5364,458.9476,886.1919,460.8012,884.3383,455.4566,884.01,465.3" style="stroke:#000000;stroke-width:1;"/><text fill="#000000" font-family="Verdana" font-size="13" lengthAdjust="spacing" textLength="123.0684" x="1457.5" y="328.0669">Persist Valid Model</text></g><!--link Auditor to ServerNet--><g class="link" data-entity-1="Auditor" data-entity-2="ServerNet" data-source-line="63" data-uid="lnk34" id="link_Auditor_ServerNet"><path d="M1735.53,464.98 C1573.12,406.93 1142.73,265.32 1035,353 C996.39,384.43 1001.2135,447.9672 1004.6835,472.9172" fill="none" id="Auditor-to-ServerNet" style="stroke:#000000;stroke-width:1;"/><polygon fill="#000000" points="1005.51,478.86,1008.2321,469.3948,1004.8212,473.9077,1000.3084,470.4968,1005.51,478.86" style="stroke:#000000;stroke-width:1;"/><text fill="#000000" font-family="Verdana" font-size="13" lengthAdjust="spacing" textLength="141.0703" x="1587.5" y="328.0669">Broadcast New Model</text></g><!--SRC=[XLJVJzim47xFNt7hmm1DW82t2bKABMM8qbMaGvCG3qvoJIqSEtASGJRnl-ziDpyQfYqFRUBx_Dtvlk_yoMmnHoW4up8eNxWic6Ov92elb4Hf8bCBX2eNvxremP8Nbg6FQKmCavd08DYjmsWgEEs5fKeH3jzWUJI2tm7GSm3psnzmDeOmJJ65MDCED2KyFODHaEA6ImGggIi0OjmeZS04PoMNcQDvMgY42PWnmvw1bUx51ToFj6b7rs-OL8Oh2H6JQQpUcXgwEiwREhfihWHkjvL0UM6jgJ6eWIXW6eKjmTCz9H5Ds1MnU-yWkov4L8VcfeOmeqy7xJErBr8PX5WPet9GcpsCVIxZISiqhsJYQXnVdiQJFTWnB6OhEAJS1NmX1NY9HmD0n3F9J4LDVKJDDpnXbci0Mh5QA9OwSDDs-o0rmbRg5jwxfdDfK6zOGftFrui88cML7RdJkZuiqGJlFO-4MQOnOruXr3zHDm8DgHQyD2XjdCWyr9ArgLlAjZyBLdTqNWib9RgUmJsJXFQQsMNw7lZYub- -SBO8e_kEEvGgPwBkX2PlL09TWZvmNsdDiwsnGlSXEw4zmL_LNIgTmwqi2pgDqX-KpRbWtcoIIlg5GyI3YgkIF6aqCvZLS7Ydg_nqlbXhMXuQvG6Boh1-q_vhW-uAi4Dxlu25odYo9yMDK34DRwE_yafqdyCP2wkKjoZ_FioQqlp7hAIqVii3PkGPNSDdcxzqnfbT3Q2hkriuXMdeelHXtNb0MuKxSRdbHHdOYmMEZoVjFJ0c04t5Dodge5cZC0sh3R5NkD4ijNOl0xjcGutx2N0j4rqN1lrOqT_tWkh1eCDSdfnCEe_J5Zi0PoSNiAx8m288kfZbzlObM5YPBNobMwhSiXSYt0Kicptd61xf0hMvO8hQj77Y8FlPiBi9gABTt0TssKPRMGWqvu8caq3T8NjnY_Ro47HAfVXyExcTC4438EpiYc0hr2KfvQlxYEatuafJMGaZy19VFVGF]--></g></svg>